<svg width="28" height="28" viewBox="0 0 28 28" fill="none" xmlns="http://www.w3.org/2000/svg">
<path d="M25.9271 0.00286689C25.5813 0.0308752 25.2419 0.121191 24.9221 0.27029H24.9178C24.6108 0.4058 23.1512 1.08935 20.9323 2.12546L12.9806 5.85379C7.27481 8.52802 1.66598 11.1615 1.66598 11.1615L1.73277 11.1327C1.73277 11.1327 1.34607 11.2742 0.942126 11.5824C0.692576 11.7592 0.477837 11.9905 0.310904 12.2624C0.112705 12.5861 -0.0467164 13.0814 0.012528 13.5935C0.109473 14.4593 0.613589 14.9786 0.975518 15.2652C1.34176 15.5554 1.69076 15.6909 1.69076 15.6909H1.69938L6.9592 17.6636C7.1951 18.5066 8.56203 23.5097 8.89057 24.6621C9.08446 25.3505 9.27296 25.781 9.50886 26.1096C9.62304 26.2775 9.75661 26.4178 9.91711 26.5305C10.0005 26.5845 10.0895 26.6272 10.1821 26.6576L10.1282 26.6432C10.1444 26.648 10.1573 26.6624 10.1692 26.6672C10.2123 26.6804 10.2413 26.6852 10.2963 26.6948C11.1289 26.9754 11.7979 26.3998 11.7979 26.3998L11.8356 26.3662L14.941 23.2183L20.1459 27.6638L20.2644 27.7201C21.3491 28.2502 22.4478 27.9552 23.0284 27.4347C23.6133 26.9107 23.8406 26.2403 23.8406 26.2403L23.8783 26.1324L27.9005 3.19276C28.0147 2.62673 28.0437 2.09668 27.9177 1.58222C27.7877 1.06156 27.4877 0.613751 27.0764 0.326652C26.7311 0.0929451 26.3307 -0.0198598 25.9271 0.00286689ZM25.8183 2.46124C25.814 2.53679 25.8269 2.5284 25.7968 2.6735V2.68669L21.8123 25.3877C21.7951 25.42 21.766 25.4908 21.6863 25.5616C21.6023 25.6359 21.5355 25.6827 21.1854 25.528L14.8193 20.0944L10.9738 23.9966L11.7817 18.2524L22.1829 7.45953C22.6116 7.01582 22.4683 6.92229 22.4683 6.92229C22.4985 6.37785 21.8209 6.76279 21.8209 6.76279L8.70529 15.8084L8.70099 15.7844L2.41462 13.428V13.4232L2.39846 13.4196C2.40948 13.4155 2.42027 13.4107 2.43078 13.4052L2.46525 13.386L2.49864 13.3728C2.49864 13.3728 8.11177 10.7394 13.8175 8.06513C16.6742 6.72562 19.5524 5.37651 21.766 4.3356C23.0788 3.72041 24.3929 3.10881 25.7084 2.50081C25.7968 2.46244 25.7548 2.46124 25.8183 2.46124Z" fill="#EEFFF1"/>
</svg>
