<svg width="37" height="27" viewBox="0 0 37 27" fill="none" xmlns="http://www.w3.org/2000/svg">
<path fill-rule="evenodd" clip-rule="evenodd" d="M36.7059 21.9782C35.8436 19.9906 34.7072 18.1749 33.3405 16.6008C32.8834 16.0096 32.4047 15.4406 31.9059 14.8954L31.8456 14.8283C31.6604 14.6224 31.4776 14.4138 31.2971 14.2024C33.1655 11.229 34.7642 8.04554 36.0687 4.70125L36.121 4.567L36.1574 4.42549C36.3302 3.76692 36.5268 2.5151 35.8293 1.38302C35.1064 0.214651 33.9508 0.00419978 33.1756 0.00419978H29.6136C28.8678 -0.034699 28.1303 0.197413 27.5067 0.667318C26.8832 1.13722 26.4055 1.82084 26.142 2.62033C25.3754 4.70967 24.4156 6.69912 23.2791 8.55468V3.77781C23.2791 3.16097 23.2283 2.12685 22.6497 1.25602C21.9586 0.211023 20.9583 0.00419978 20.264 0.00419978H14.611C13.8734 -0.0152246 13.1575 0.290779 12.6115 0.858839C12.0656 1.4269 11.7315 2.2135 11.6784 3.05574L11.6736 3.13738V3.21902C11.6736 4.09893 11.978 4.74842 12.2221 5.15662C12.3315 5.33986 12.4472 5.50677 12.5217 5.612L12.5376 5.63558C12.6168 5.74806 12.6691 5.82245 12.7214 5.9059C12.8609 6.11998 13.0591 6.4538 13.1162 7.31375V9.98612C11.9814 7.81143 11.051 5.50539 10.3404 3.10654L10.3278 3.06663L10.3151 3.02853C10.1217 2.44979 9.81255 1.60798 9.19273 0.965744C8.46987 0.212837 7.61384 0.00419978 6.8355 0.00419978H3.22118C2.43332 0.00419978 1.48377 0.214652 0.775176 1.06916C0.0792613 1.91096 0 2.91967 0 3.45306V3.69617L0.0443863 3.93202C1.04514 9.24913 3.10742 14.2291 6.06983 18.4822C7.42421 20.9265 9.26293 22.9711 11.4369 24.4501C13.6108 25.929 16.0587 26.8008 18.582 26.9946L18.647 27H18.7136C19.8645 27 21.0645 26.8857 21.9665 26.1981C23.1824 25.2692 23.2791 23.845 23.2791 23.1339V21.0693C23.5913 21.3595 23.9781 21.7478 24.4521 22.2703C25.026 22.927 25.4825 23.4967 25.8741 23.9938L26.0833 24.2587C26.3877 24.6469 26.6873 25.0297 26.96 25.3436C27.3024 25.7373 27.7256 26.1709 28.2551 26.492C28.8305 26.8385 29.4345 26.9964 30.0749 26.9964H33.6908C34.4533 26.9964 35.5455 26.7895 36.3144 25.7699C37.1514 24.6596 37.088 23.2971 36.8248 22.3193L36.7773 22.1433L36.7059 21.9782ZM27.6384 22.1705C27.1471 21.542 26.6413 20.9285 26.1214 20.3309L26.1166 20.3254C23.9655 17.9524 22.962 17.5406 22.2518 17.5406C21.873 17.5406 21.456 17.5878 21.185 17.976C21.0629 18.1612 20.9829 18.3781 20.9519 18.6074C20.9137 18.8735 20.8968 19.1432 20.9012 19.4129V23.1339C20.9012 23.5965 20.8346 23.7906 20.6476 23.9321C20.3987 24.1226 19.8676 24.2768 18.7279 24.2768C16.5628 24.1082 14.4636 23.3539 12.6028 22.076C10.7421 20.798 9.17295 19.0328 8.02442 16.9256L8.01174 16.902L7.99588 16.8802C5.23619 12.949 3.31288 8.33742 2.37784 3.40952C2.38418 3.17367 2.42857 3.03034 2.50149 2.94326C2.57599 2.85255 2.75829 2.72555 3.22118 2.72555H6.8355C7.23656 2.72555 7.44581 2.82715 7.59641 2.98136C7.76444 3.15915 7.91345 3.4585 8.091 3.99189C8.97873 6.97812 10.1772 9.77203 11.3138 11.8239C11.8813 12.8508 12.4393 13.7053 12.9434 14.3094C13.1954 14.6106 13.4411 14.861 13.6773 15.0388C13.904 15.2093 14.1624 15.3454 14.4287 15.3454C14.5682 15.3454 14.7315 15.3272 14.8885 15.2492C15.0579 15.1635 15.1975 15.0153 15.2848 14.8283C15.448 14.4872 15.494 13.9847 15.494 13.3261V7.20671C15.41 5.72266 15.0184 4.8863 14.638 4.29305C14.5609 4.17439 14.4817 4.05764 14.4002 3.9429L14.3796 3.91387C14.312 3.8199 14.2475 3.72308 14.1862 3.6236C14.1082 3.51265 14.0612 3.37734 14.0515 3.23535C14.0639 3.09119 14.124 2.95791 14.2195 2.8628C14.315 2.76769 14.4386 2.71794 14.5651 2.72374H20.264C20.5905 2.72374 20.6999 2.81445 20.7554 2.89972C20.8346 3.01764 20.9012 3.26256 20.9012 3.77781V11.9927C20.9012 12.9687 21.2944 13.6291 21.865 13.6291C22.5213 13.6291 22.9953 13.1737 23.8228 12.2267L23.8371 12.2086L23.8497 12.1922C25.706 9.60201 27.2226 6.7161 28.3518 3.62541L28.3581 3.60364C28.443 3.33057 28.6036 3.09677 28.8154 2.9379C29.0272 2.77903 29.2786 2.70382 29.5312 2.72374H33.1772C33.6718 2.72374 33.8335 2.86888 33.8874 2.95414C33.9429 3.04486 33.9825 3.23898 33.8874 3.61997C32.5853 6.95155 30.9756 10.1142 29.0857 13.054L29.0731 13.0758C28.8908 13.3969 28.6894 13.7525 28.6609 14.1589C28.6292 14.5979 28.7941 14.9952 29.0842 15.4234C29.295 15.779 29.7309 16.267 30.1732 16.7623L30.2144 16.8094C30.6773 17.3283 31.1798 17.8907 31.5825 18.435L31.5936 18.4477L31.6047 18.4622C32.8053 19.8328 33.8038 21.4173 34.5611 23.1538C34.6816 23.6255 34.6087 23.8686 34.5136 23.9938C34.4042 24.139 34.1585 24.275 33.6924 24.275H30.0749C29.8284 24.2819 29.5844 24.2163 29.3663 24.0845C29.0991 23.9066 28.8565 23.684 28.6466 23.4241C28.4199 23.1647 28.1742 22.8508 27.873 22.468L27.64 22.1705H27.6384Z" fill="#EEFFF1"/>
</svg>
